STARTFONT 2.1
FONT -AmsteinGraphics-DMCP-Normal-R-Normal--7-70-173-173-P-170--
SIZE 7 173 173
FONTBOUNDINGBOX 12 24 0 -4
STARTPROPERTIES 41
FAMILY_NAME "DMCP"
DEFAULT_CHAR -1
FOUNDRY "AmsteinGraphics"
COPYRIGHT "Copyright (c) 2022 SwissMicros"
CODEPAGE "MS Windows 1252 Western (ANSI)"
ENC_MODE 2
ENC_ID 1
CREATION_YEAR 2022
WEIGHT_NAME "Normal"
SLANT "R"
SETWIDTH_NAME "Normal"
SPACING "P"
WEIGHT 400
HI_VERSION 1
CP_RANGE_1 65535
CP_RANGE_2 65535
FONTNAME_REGISTRY "-"
CHARSET_REGISTRY "ISO10646"
CHARSET_ENCODING "1"
BREAK_CHAR 32
PIXEL_SIZE 16
POINT_SIZE 70
FONT_ASCENT 16
FONT_DESCENT 4
RESOLUTION_X 173
RESOLUTION_Y 173
AVERAGE_WIDTH 170
MIN_SPACE 9
NORM_SPACE 12
MAX_SPACE 18
END_SPACE 12
SUPERSCRIPT_X 6
SUPERSCRIPT_Y 6
SUBSCRIPT_X 6
SUBSCRIPT_Y 6
X_HEIGHT 11
AVG_CAPITAL_WIDTH 12
AVG_LOWERCASE_WIDTH 12
CAP_HEIGHT 15
FIGURE_WIDTH 12
SUBSCRIPT_SIZE 10
ENDPROPERTIES
CHARS 289
STARTCHAR space.uni0020
ENCODING 32
SWIDTH 568 0
DWIDTH 12 0
BBX 0 0 0 0
BITMAP
ENDCHAR
STARTCHAR exclam.uni0021
ENCODING 33
SWIDTH 568 0
DWIDTH 12 0
BBX 2 15 5 0
BITMAP
C000
C000
C000
C000
C000
C000
C000
C000
C000
C000
0000
0000
C000
C000
C000
ENDCHAR
STARTCHAR quotedbl.uni0022
ENCODING 34
SWIDTH 568 0
DWIDTH 12 0
BBX 6 6 3 9
BITMAP
CC00
CC00
CC00
CC00
CC00
CC00
ENDCHAR
STARTCHAR numbersign.uni0023
ENCODING 35
SWIDTH 568 0
DWIDTH 12 0
BBX 12 15 0 0
BITMAP
0660
0660
0CC0
0CC0
7FF0
7FF0
1980
1980
1980
FFE0
FFE0
3300
3300
6600
6600
ENDCHAR
STARTCHAR dollar.uni0024
ENCODING 36
SWIDTH 568 0
DWIDTH 12 0
BBX 9 19 2 -3
BITMAP
0800
0800
3E00
7F00
E900
C800
C800
E800
7C00
1F00
0B80
0980
0980
8B80
FF00
7E00
0800
0800
0800
ENDCHAR
STARTCHAR percent.uni0025
ENCODING 37
SWIDTH 568 0
DWIDTH 12 0
BBX 11 15 0 0
BITMAP
7800
4800
CC00
CC00
CC00
4800
79C0
0E00
73C0
0240
0660
0660
0660
0240
03C0
ENDCHAR
STARTCHAR ampersand.uni0026
ENCODING 38
SWIDTH 568 0
DWIDTH 12 0
BBX 11 15 1 0
BITMAP
1F00
3F00
3000
3000
3000
1800
3C00
6C60
C660
C760
C340
C1C0
6180
7EC0
1CE0
ENDCHAR
STARTCHAR quotesingle.uni0027
ENCODING 39
SWIDTH 568 0
DWIDTH 12 0
BBX 2 6 5 9
BITMAP
C000
C000
C000
C000
C000
C000
ENDCHAR
STARTCHAR parenleft.uni0028
ENCODING 40
SWIDTH 568 0
DWIDTH 12 0
BBX 4 19 4 -3
BITMAP
1000
2000
2000
6000
6000
4000
C000
C000
C000
C000
C000
C000
C000
4000
6000
6000
2000
2000
1000
ENDCHAR
STARTCHAR parenright.uni0029
ENCODING 41
SWIDTH 568 0
DWIDTH 12 0
BBX 4 19 4 -3
BITMAP
8000
4000
4000
6000
6000
2000
3000
3000
3000
3000
3000
3000
3000
2000
6000
6000
4000
4000
8000
ENDCHAR
STARTCHAR asterisk.uni002A
ENCODING 42
SWIDTH 568 0
DWIDTH 12 0
BBX 9 10 1 5
BITMAP
0800
0800
8880
6B00
1C00
1C00
6B00
8880
0800
0800
ENDCHAR
STARTCHAR plus.uni002B
ENCODING 43
SWIDTH 568 0
DWIDTH 12 0
BBX 10 10 1 2
BITMAP
0C00
0C00
0C00
0C00
FFC0
FFC0
0C00
0C00
0C00
0C00
ENDCHAR
STARTCHAR comma.uni002C
ENCODING 44
SWIDTH 568 0
DWIDTH 12 0
BBX 3 6 4 -3
BITMAP
6000
6000
6000
6000
C000
C000
ENDCHAR
STARTCHAR hyphen.uni002D
ENCODING 45
SWIDTH 568 0
DWIDTH 12 0
BBX 5 2 3 5
BITMAP
F800
F800
ENDCHAR
STARTCHAR period.uni002E
ENCODING 46
SWIDTH 568 0
DWIDTH 12 0
BBX 2 3 5 0
BITMAP
C000
C000
C000
ENDCHAR
STARTCHAR slash.uni002F
ENCODING 47
SWIDTH 568 0
DWIDTH 12 0
BBX 10 17 1 -2
BITMAP
00C0
0180
0180
0300
0300
0600
0600
0C00
0C00
1800
1800
3000
3000
6000
6000
C000
C000
ENDCHAR
STARTCHAR zero.uni0030
ENCODING 48
SWIDTH 568 0
DWIDTH 12 0
BBX 9 15 1 0
BITMAP
1C00
7F00
6300
6300
C380
C780
CD80
C980
D980
F180
E180
6300
6300
7F00
1C00
ENDCHAR
STARTCHAR one.uni0031
ENCODING 49
SWIDTH 568 0
DWIDTH 12 0
BBX 8 15 3 0
BITMAP
3800
F800
D800
1800
1800
1800
1800
1800
1800
1800
1800
1800
1800
FF00
FF00
ENDCHAR
STARTCHAR two.uni0032
ENCODING 50
SWIDTH 568 0
DWIDTH 12 0
BBX 9 15 1 0
BITMAP
7E00
FF00
8380
0180
0180
0180
0380
0300
0600
0C00
1800
3000
6000
FF80
FF80
ENDCHAR
STARTCHAR three.uni0033
ENCODING 51
SWIDTH 568 0
DWIDTH 12 0
BBX 9 15 1 0
BITMAP
7E00
FF00
8380
0180
0180
0380
1F00
1E00
0300
0180
0180
0180
8380
FF00
7E00
ENDCHAR
STARTCHAR four.uni0034
ENCODING 52
SWIDTH 568 0
DWIDTH 12 0
BBX 10 15 1 0
BITMAP
0700
0700
0F00
0B00
1B00
1300
3300
2300
6300
4300
FFC0
FFC0
0300
0300
0300
ENDCHAR
STARTCHAR five.uni0035
ENCODING 53
SWIDTH 568 0
DWIDTH 12 0
BBX 9 15 1 0
BITMAP
7F00
7F00
6000
6000
6000
7E00
7F00
4380
0180
0180
0180
0180
8300
FF00
7C00
ENDCHAR
STARTCHAR six.uni0036
ENCODING 54
SWIDTH 568 0
DWIDTH 12 0
BBX 9 15 1 0
BITMAP
1E00
3F00
7100
6000
C000
C000
DE00
FF00
E380
C180
C180
C180
6380
7F00
3E00
ENDCHAR
STARTCHAR seven.uni0037
ENCODING 55
SWIDTH 568 0
DWIDTH 12 0
BBX 9 15 1 0
BITMAP
FF80
FF00
0300
0300
0600
0600
0600
0C00
0C00
0C00
1800
1800
1800
3000
3000
ENDCHAR
STARTCHAR eight.uni0038
ENCODING 56
SWIDTH 568 0
DWIDTH 12 0
BBX 9 15 1 0
BITMAP
3E00
7F00
E380
C180
C180
6300
3E00
7F00
6300
C180
C180
C180
E380
7F00
3E00
ENDCHAR
STARTCHAR nine.uni0039
ENCODING 57
SWIDTH 568 0
DWIDTH 12 0
BBX 9 15 1 0
BITMAP
3E00
7F00
E300
C180
C180
C180
E380
7F80
3D80
0180
0180
0300
4700
7E00
3C00
ENDCHAR
STARTCHAR colon.uni003A
ENCODING 58
SWIDTH 568 0
DWIDTH 12 0
BBX 2 11 5 0
BITMAP
C000
C000
C000
0000
0000
0000
0000
0000
C000
C000
C000
ENDCHAR
STARTCHAR semicolon.uni003B
ENCODING 59
SWIDTH 568 0
DWIDTH 12 0
BBX 3 14 4 -3
BITMAP
6000
6000
6000
0000
0000
0000
0000
0000
6000
6000
6000
6000
C000
C000
ENDCHAR
STARTCHAR less.uni003C
ENCODING 60
SWIDTH 568 0
DWIDTH 12 0
BBX 10 10 1 2
BITMAP
00C0
03C0
0F00
3C00
E000
E000
3C00
0F00
03C0
00C0
ENDCHAR
STARTCHAR equal.uni003D
ENCODING 61
SWIDTH 568 0
DWIDTH 12 0
BBX 10 6 1 3
BITMAP
FFC0
FFC0
0000
0000
FFC0
FFC0
ENDCHAR
STARTCHAR greater.uni003E
ENCODING 62
SWIDTH 568 0
DWIDTH 12 0
BBX 10 10 1 2
BITMAP
C000
F000
3C00
0F00
01C0
01C0
0F00
3C00
F000
C000
ENDCHAR
STARTCHAR question.uni003F
ENCODING 63
SWIDTH 568 0
DWIDTH 12 0
BBX 8 15 3 0
BITMAP
7C00
FE00
8300
0300
0700
0E00
1C00
3000
3000
3000
0000
0000
3000
3000
3000
ENDCHAR
STARTCHAR at.uni0040
ENCODING 64
SWIDTH 568 0
DWIDTH 12 0
BBX 10 17 1 -3
BITMAP
0F00
3980
60C0
60C0
67C0
C4C0
CCC0
CCC0
CCC0
CCC0
CCC0
C4C0
67C0
6000
3000
3800
0F00
ENDCHAR
STARTCHAR A.uni0041
ENCODING 65
SWIDTH 568 0
DWIDTH 12 0
BBX 10 15 1 0
BITMAP
0C00
0C00
1E00
1E00
1E00
1200
3300
3300
3300
7F80
7F80
6180
6180
C0C0
C0C0
ENDCHAR
STARTCHAR B.uni0042
ENCODING 66
SWIDTH 568 0
DWIDTH 12 0
BBX 10 15 1 0
BITMAP
FE00
FF00
C380
C180
C180
C380
FF00
FF00
C180
C0C0
C0C0
C0C0
C1C0
FF80
FF00
ENDCHAR
STARTCHAR C.uni0043
ENCODING 67
SWIDTH 568 0
DWIDTH 12 0
BBX 10 15 1 0
BITMAP
0F80
3FC0
7040
6000
C000
C000
C000
C000
C000
C000
C000
6000
7040
3FC0
0F80
ENDCHAR
STARTCHAR D.uni0044
ENCODING 68
SWIDTH 568 0
DWIDTH 12 0
BBX 10 15 1 0
BITMAP
FC00
FF00
C380
C180
C0C0
C0C0
C0C0
C0C0
C0C0
C0C0
C0C0
C180
C380
FF00
FC00
ENDCHAR
STARTCHAR E.uni0045
ENCODING 69
SWIDTH 568 0
DWIDTH 12 0
BBX 10 15 1 0
BITMAP
FFC0
FFC0
C000
C000
C000
C000
FF80
FF80
C000
C000
C000
C000
C000
FFC0
FFC0
ENDCHAR
STARTCHAR F.uni0046
ENCODING 70
SWIDTH 568 0
DWIDTH 12 0
BBX 10 15 1 0
BITMAP
FFC0
FFC0
C000
C000
C000
C000
FF80
FF80
C000
C000
C000
C000
C000
C000
C000
ENDCHAR
STARTCHAR G.uni0047
ENCODING 71
SWIDTH 568 0
DWIDTH 12 0
BBX 10 15 1 0
BITMAP
1F00
3F80
7080
6000
C000
C000
C000
C3C0
C3C0
C0C0
C0C0
60C0
70C0
3FC0
1F00
ENDCHAR
STARTCHAR H.uni0048
ENCODING 72
SWIDTH 568 0
DWIDTH 12 0
BBX 10 15 1 0
BITMAP
C0C0
C0C0
C0C0
C0C0
C0C0
C0C0
FFC0
FFC0
C0C0
C0C0
C0C0
C0C0
C0C0
C0C0
C0C0
ENDCHAR
STARTCHAR I.uni0049
ENCODING 73
SWIDTH 568 0
DWIDTH 12 0
BBX 8 15 2 0
BITMAP
FF00
FF00
1800
1800
1800
1800
1800
1800
1800
1800
1800
1800
1800
FF00
FF00
ENDCHAR
STARTCHAR J.uni004A
ENCODING 74
SWIDTH 568 0
DWIDTH 12 0
BBX 8 15 1 0
BITMAP
3F00
3F00
0300
0300
0300
0300
0300
0300
0300
0300
0300
0300
8700
FE00
7C00
ENDCHAR
STARTCHAR K.uni004B
ENCODING 75
SWIDTH 568 0
DWIDTH 12 0
BBX 10 15 1 0
BITMAP
C0C0
C180
C300
C600
CC00
D800
F800
FC00
EC00
C600
C700
C300
C180
C1C0
C0C0
ENDCHAR
STARTCHAR L.uni004C
ENCODING 76
SWIDTH 568 0
DWIDTH 12 0
BBX 10 15 1 0
BITMAP
C000
C000
C000
C000
C000
C000
C000
C000
C000
C000
C000
C000
C000
FFC0
FFC0
ENDCHAR
STARTCHAR M.uni004D
ENCODING 77
SWIDTH 568 0
DWIDTH 12 0
BBX 10 15 1 0
BITMAP
E1C0
E1C0
E1C0
F3C0
D2C0
D2C0
DEC0
CCC0
CCC0
CCC0
C0C0
C0C0
C0C0
C0C0
C0C0
ENDCHAR
STARTCHAR N.uni004E
ENCODING 78
SWIDTH 568 0
DWIDTH 12 0
BBX 10 15 1 0
BITMAP
E0C0
E0C0
F0C0
F0C0
D8C0
D8C0
C8C0
CCC0
C4C0
C6C0
C6C0
C3C0
C3C0
C1C0
C1C0
ENDCHAR
STARTCHAR O.uni004F
ENCODING 79
SWIDTH 568 0
DWIDTH 12 0
BBX 10 15 1 0
BITMAP
1E00
7F80
6180
E1C0
C0C0
C0C0
C0C0
C0C0
C0C0
C0C0
C0C0
E1C0
6180
7F80
1E00
ENDCHAR
STARTCHAR P.uni0050
ENCODING 80
SWIDTH 568 0
DWIDTH 12 0
BBX 10 15 1 0
BITMAP
FF00
FF80
C1C0
C0C0
C0C0
C0C0
C1C0
FF80
FF00
C000
C000
C000
C000
C000
C000
ENDCHAR
STARTCHAR Q.uni0051
ENCODING 81
SWIDTH 568 0
DWIDTH 12 0
BBX 10 18 1 -3
BITMAP
1E00
7F80
6180
E1C0
C0C0
C0C0
C0C0
C0C0
C0C0
C0C0
C0C0
E1C0
6180
7F80
1E00
0700
0380
0100
ENDCHAR
STARTCHAR R.uni0052
ENCODING 82
SWIDTH 568 0
DWIDTH 12 0
BBX 11 15 1 0
BITMAP
FE00
FF80
C1C0
C0C0
C0C0
C0C0
C180
FF80
FF00
C380
C180
C0C0
C0C0
C060
C060
ENDCHAR
STARTCHAR S.uni0053
ENCODING 83
SWIDTH 568 0
DWIDTH 12 0
BBX 10 15 1 0
BITMAP
3F00
7F80
E080
C000
C000
E000
7C00
3F00
0380
00C0
00C0
00C0
81C0
FF80
7F00
ENDCHAR
STARTCHAR T.uni0054
ENCODING 84
SWIDTH 568 0
DWIDTH 12 0
BBX 12 15 0 0
BITMAP
FFF0
FFF0
0600
0600
0600
0600
0600
0600
0600
0600
0600
0600
0600
0600
0600
ENDCHAR
STARTCHAR U.uni0055
ENCODING 85
SWIDTH 568 0
DWIDTH 12 0
BBX 10 15 1 0
BITMAP
C0C0
C0C0
C0C0
C0C0
C0C0
C0C0
C0C0
C0C0
C0C0
C0C0
C0C0
C0C0
6180
7F80
3F00
ENDCHAR
STARTCHAR V.uni0056
ENCODING 86
SWIDTH 568 0
DWIDTH 12 0
BBX 10 15 1 0
BITMAP
C0C0
C0C0
6180
6180
6180
6180
3300
3300
3300
3300
1E00
1E00
1E00
0C00
0C00
ENDCHAR
STARTCHAR W.uni0057
ENCODING 87
SWIDTH 568 0
DWIDTH 12 0
BBX 12 15 0 0
BITMAP
C030
C030
C030
6060
6660
6660
6F60
6F60
6960
6960
39C0
39C0
39C0
30C0
30C0
ENDCHAR
STARTCHAR X.uni0058
ENCODING 88
SWIDTH 568 0
DWIDTH 12 0
BBX 10 15 1 0
BITMAP
E1C0
6180
3300
3300
1E00
1E00
0C00
0C00
1E00
1E00
3300
3300
6180
6180
C0C0
ENDCHAR
STARTCHAR Y.uni0059
ENCODING 89
SWIDTH 568 0
DWIDTH 12 0
BBX 12 15 0 0
BITMAP
E070
6060
30C0
30C0
1980
1980
0F00
0F00
0600
0600
0600
0600
0600
0600
0600
ENDCHAR
STARTCHAR Z.uni005A
ENCODING 90
SWIDTH 568 0
DWIDTH 12 0
BBX 10 15 1 0
BITMAP
FFC0
FFC0
0180
0380
0300
0600
0E00
0C00
1C00
1800
3000
7000
6000
FFC0
FFC0
ENDCHAR
STARTCHAR bracketleft.uni005B
ENCODING 91
SWIDTH 568 0
DWIDTH 12 0
BBX 4 19 5 -3
BITMAP
F000
F000
C000
C000
C000
C000
C000
C000
C000
C000
C000
C000
C000
C000
C000
C000
C000
F000
F000
ENDCHAR
STARTCHAR backslash.uni005C
ENCODING 92
SWIDTH 568 0
DWIDTH 12 0
BBX 10 17 1 -2
BITMAP
C000
6000
6000
3000
3000
1800
1800
0C00
0C00
0600
0600
0300
0300
0180
0180
00C0
00C0
ENDCHAR
STARTCHAR bracketright.uni005D
ENCODING 93
SWIDTH 568 0
DWIDTH 12 0
BBX 4 19 4 -3
BITMAP
F000
F000
3000
3000
3000
3000
3000
3000
3000
3000
3000
3000
3000
3000
3000
3000
3000
F000
F000
ENDCHAR
STARTCHAR asciicircum.uni005E
ENCODING 94
SWIDTH 568 0
DWIDTH 12 0
BBX 11 5 1 10
BITMAP
0E00
1F00
3B80
60C0
C060
ENDCHAR
STARTCHAR underscore.uni005F
ENCODING 95
SWIDTH 568 0
DWIDTH 12 0
BBX 10 2 0 -3
BITMAP
FFC0
FFC0
ENDCHAR
STARTCHAR grave.uni0060
ENCODING 96
SWIDTH 568 0
DWIDTH 12 0
BBX 5 4 3 13
BITMAP
E000
7000
3000
1800
ENDCHAR
STARTCHAR a.uni0061
ENCODING 97
SWIDTH 568 0
DWIDTH 12 0
BBX 9 11 1 0
BITMAP
3E00
7F00
4380
0180
3F80
7F80
E180
C180
C380
FF80
3D80
ENDCHAR
STARTCHAR b.uni0062
ENCODING 98
SWIDTH 568 0
DWIDTH 12 0
BBX 9 16 1 0
BITMAP
C000
C000
C000
C000
C000
DE00
FF00
E300
C180
C180
C180
C180
C180
E300
FF00
DE00
ENDCHAR
STARTCHAR c.uni0063
ENCODING 99
SWIDTH 568 0
DWIDTH 12 0
BBX 8 11 1 0
BITMAP
1E00
7F00
6100
C000
C000
C000
C000
C000
6100
7F00
1E00
ENDCHAR
STARTCHAR d.uni0064
ENCODING 100
SWIDTH 568 0
DWIDTH 12 0
BBX 9 16 1 0
BITMAP
0180
0180
0180
0180
0180
3D80
7F80
6380
C180
C180
C180
C180
C180
6380
7F80
3D80
ENDCHAR
STARTCHAR e.uni0065
ENCODING 101
SWIDTH 568 0
DWIDTH 12 0
BBX 9 11 1 0
BITMAP
1E00
7F00
6380
C180
FF80
FF80
C000
C000
6080
7F80
1F00
ENDCHAR
STARTCHAR f.uni0066
ENCODING 102
SWIDTH 568 0
DWIDTH 12 0
BBX 9 16 2 0
BITMAP
0780
0F80
1800
1800
1800
FF80
FF80
1800
1800
1800
1800
1800
1800
1800
FF00
FF00
ENDCHAR
STARTCHAR g.uni0067
ENCODING 103
SWIDTH 568 0
DWIDTH 12 0
BBX 9 15 1 -4
BITMAP
3D80
7F80
6380
C180
C180
C180
C180
C180
6380
7F80
3D80
0180
4380
7F00
3E00
ENDCHAR
STARTCHAR h.uni0068
ENCODING 104
SWIDTH 568 0
DWIDTH 12 0
BBX 9 16 1 0
BITMAP
C000
C000
C000
C000
C000
CE00
FF00
E380
C180
C180
C180
C180
C180
C180
C180
C180
ENDCHAR
STARTCHAR i.uni0069
ENCODING 105
SWIDTH 568 0
DWIDTH 12 0
BBX 10 16 1 0
BITMAP
0C00
0C00
0000
0000
0000
7C00
7C00
0C00
0C00
0C00
0C00
0C00
0C00
0C00
FFC0
FFC0
ENDCHAR
STARTCHAR j.uni006A
ENCODING 106
SWIDTH 568 0
DWIDTH 12 0
BBX 6 20 2 -4
BITMAP
0C00
0C00
0000
0000
0000
7C00
7C00
0C00
0C00
0C00
0C00
0C00
0C00
0C00
0C00
0C00
0C00
0C00
F800
F000
ENDCHAR
STARTCHAR k.uni006B
ENCODING 107
SWIDTH 568 0
DWIDTH 12 0
BBX 9 16 1 0
BITMAP
C000
C000
C000
C000
C000
C380
C700
CE00
DC00
F800
F800
EC00
CE00
C600
C300
C380
ENDCHAR
STARTCHAR l.uni006C
ENCODING 108
SWIDTH 568 0
DWIDTH 12 0
BBX 10 16 0 0
BITMAP
FC00
FC00
0C00
0C00
0C00
0C00
0C00
0C00
0C00
0C00
0C00
0C00
0C00
0E00
07C0
03C0
ENDCHAR
STARTCHAR m.uni006D
ENCODING 109
SWIDTH 568 0
DWIDTH 12 0
BBX 10 11 1 0
BITMAP
DB80
FFC0
CCC0
CCC0
CCC0
CCC0
CCC0
CCC0
CCC0
CCC0
CCC0
ENDCHAR
STARTCHAR n.uni006E
ENCODING 110
SWIDTH 568 0
DWIDTH 12 0
BBX 9 11 1 0
BITMAP
CE00
FF00
E380
C180
C180
C180
C180
C180
C180
C180
C180
ENDCHAR
STARTCHAR o.uni006F
ENCODING 111
SWIDTH 568 0
DWIDTH 12 0
BBX 9 11 1 0
BITMAP
3E00
7F00
6300
C180
C180
C180
C180
C180
6300
7F00
3E00
ENDCHAR
STARTCHAR p.uni0070
ENCODING 112
SWIDTH 568 0
DWIDTH 12 0
BBX 9 15 1 -4
BITMAP
DE00
FF00
E300
C180
C180
C180
C180
C180
E300
FF00
DE00
C000
C000
C000
C000
ENDCHAR
STARTCHAR q.uni0071
ENCODING 113
SWIDTH 568 0
DWIDTH 12 0
BBX 9 15 1 -4
BITMAP
3D80
7F80
6380
C180
C180
C180
C180
C180
6380
7F80
3D80
0180
0180
0180
0180
ENDCHAR
STARTCHAR r.uni0072
ENCODING 114
SWIDTH 568 0
DWIDTH 12 0
BBX 10 11 1 0
BITMAP
F380
F7C0
3C40
3800
3000
3000
3000
3000
3000
FF00
FF00
ENDCHAR
STARTCHAR s.uni0073
ENCODING 115
SWIDTH 568 0
DWIDTH 12 0
BBX 9 11 1 0
BITMAP
3F00
7F80
C080
C000
FE00
3F00
0380
0180
8380
FF00
7E00
ENDCHAR
STARTCHAR t.uni0074
ENCODING 116
SWIDTH 568 0
DWIDTH 12 0
BBX 9 14 1 0
BITMAP
1800
1800
1800
FF80
FF80
1800
1800
1800
1800
1800
1800
1800
1F80
0F80
ENDCHAR
STARTCHAR u.uni0075
ENCODING 117
SWIDTH 568 0
DWIDTH 12 0
BBX 9 11 1 0
BITMAP
C180
C180
C180
C180
C180
C180
C180
C180
E380
7F80
3980
ENDCHAR
STARTCHAR v.uni0076
ENCODING 118
SWIDTH 568 0
DWIDTH 12 0
BBX 9 11 1 0
BITMAP
C180
C180
6300
6300
6300
3600
3600
3600
1C00
1C00
1C00
ENDCHAR
STARTCHAR w.uni0077
ENCODING 119
SWIDTH 568 0
DWIDTH 12 0
BBX 12 11 0 0
BITMAP
C030
C030
6060
6660
6660
6660
2F40
39C0
39C0
39C0
1080
ENDCHAR
STARTCHAR x.uni0078
ENCODING 120
SWIDTH 568 0
DWIDTH 12 0
BBX 9 11 1 0
BITMAP
E380
6300
3600
3E00
1C00
1C00
1C00
3E00
3600
6300
E380
ENDCHAR
STARTCHAR y.uni0079
ENCODING 121
SWIDTH 568 0
DWIDTH 12 0
BBX 9 15 1 -4
BITMAP
C180
6300
6300
6300
3600
3600
3E00
1C00
1C00
0C00
1C00
1800
1800
7000
7000
ENDCHAR
STARTCHAR z.uni007A
ENCODING 122
SWIDTH 568 0
DWIDTH 12 0
BBX 9 11 1 0
BITMAP
FF80
FF80
0300
0600
0C00
1800
3000
6000
C000
FF80
FF80
ENDCHAR
STARTCHAR braceleft.uni007B
ENCODING 123
SWIDTH 568 0
DWIDTH 12 0
BBX 8 19 2 -3
BITMAP
0F00
1F00
1800
1800
1800
1800
1800
3800
F000
F000
3800
1800
1800
1800
1800
1800
1800
1F00
0F00
ENDCHAR
STARTCHAR bar.uni007C
ENCODING 124
SWIDTH 568 0
DWIDTH 12 0
BBX 2 20 5 -4
BITMAP
C000
C000
C000
C000
C000
C000
C000
C000
C000
C000
C000
C000
C000
C000
C000
C000
C000
C000
C000
C000
ENDCHAR
STARTCHAR braceright.uni007D
ENCODING 125
SWIDTH 568 0
DWIDTH 12 0
BBX 8 19 2 -3
BITMAP
F000
F800
1800
1800
1800
1800
1800
1C00
0F00
0F00
1C00
1800
1800
1800
1800
1800
1800
F800
F000
ENDCHAR
STARTCHAR asciitilde.uni007E
ENCODING 126
SWIDTH 568 0
DWIDTH 12 0
BBX 10 3 1 5
BITMAP
7840
FFC0
8780
ENDCHAR
STARTCHAR nbsp.uni00A0
ENCODING 160
SWIDTH 568 0
DWIDTH 12 0
BBX 0 0 0 0
BITMAP
ENDCHAR
STARTCHAR exclamdown.uni00A1
ENCODING 161
SWIDTH 568 0
DWIDTH 12 0
BBX 2 15 5 0
BITMAP
C000
C000
C000
0000
0000
C000
C000
C000
C000
C000
C000
C000
C000
C000
C000
ENDCHAR
STARTCHAR cent.uni00A2
ENCODING 162
SWIDTH 568 0
DWIDTH 12 0
BBX 8 17 1 -3
BITMAP
0800
0800
0800
3E00
7F00
6900
C800
C800
C800
C800
C800
6900
7F00
3E00
0800
0800
0800
ENDCHAR
STARTCHAR sterling.uni00A3
ENCODING 163
SWIDTH 568 0
DWIDTH 12 0
BBX 9 15 2 0
BITMAP
0F00
1F80
3880
3000
3000
3000
3000
FF00
FF00
3000
3000
3000
3000
FF80
FF80
ENDCHAR
STARTCHAR currency.uni00A4
ENCODING 164
SWIDTH 568 0
DWIDTH 12 0
BBX 9 9 2 2
BITMAP
8080
5D00
2200
4100
4100
4100
2200
5D00
8080
ENDCHAR
STARTCHAR yen.uni00A5
ENCODING 165
SWIDTH 568 0
DWIDTH 12 0
BBX 12 15 0 0
BITMAP
E070
6060
30C0
30C0
1980
1980
7FE0
0F00
0600
7FE0
0600
0600
0600
0600
0600
ENDCHAR
STARTCHAR brokenbar.uni00A6
ENCODING 166
SWIDTH 568 0
DWIDTH 12 0
BBX 2 19 5 -4
BITMAP
C000
C000
C000
C000
C000
C000
C000
C000
0000
0000
0000
C000
C000
C000
C000
C000
C000
C000
C000
ENDCHAR
STARTCHAR section.uni00A7
ENCODING 167
SWIDTH 568 0
DWIDTH 12 0
BBX 8 17 2 -2
BITMAP
3E00
7E00
6000
6000
3000
7800
CE00
C700
C300
E300
7600
1C00
0C00
0600
0600
7E00
7C00
ENDCHAR
STARTCHAR dieresis.uni00A8
ENCODING 168
SWIDTH 568 0
DWIDTH 12 0
BBX 6 2 3 14
BITMAP
CC00
CC00
ENDCHAR
STARTCHAR copyright.uni00A9
ENCODING 169
SWIDTH 568 0
DWIDTH 12 0
BBX 12 13 0 1
BITMAP
0F00
30C0
4020
4F20
9090
A010
A010
A010
9090
4F20
4020
30C0
0F00
ENDCHAR
STARTCHAR ordfeminine.uni00AA
ENCODING 170
SWIDTH 568 0
DWIDTH 12 0
BBX 7 10 2 5
BITMAP
3C00
4200
0200
7E00
8200
8200
8600
7A00
0000
FE00
ENDCHAR
STARTCHAR guillemotleft.uni00AB
ENCODING 171
SWIDTH 568 0
DWIDTH 12 0
BBX 10 9 1 2
BITMAP
0840
18C0
3180
6300
C600
6300
3180
18C0
0840
ENDCHAR
STARTCHAR logicalnot.uni00AC
ENCODING 172
SWIDTH 568 0
DWIDTH 12 0
BBX 10 5 1 4
BITMAP
FFC0
FFC0
00C0
00C0
00C0
ENDCHAR
STARTCHAR registered.uni00AE
ENCODING 174
SWIDTH 568 0
DWIDTH 12 0
BBX 12 13 0 1
BITMAP
0F00
30C0
4020
5F20
9090
9090
9F10
9110
9090
50A0
4020
30C0
0F00
ENDCHAR
STARTCHAR macron.uni00AF
ENCODING 175
SWIDTH 568 0
DWIDTH 12 0
BBX 6 2 3 14
BITMAP
FC00
FC00
ENDCHAR
STARTCHAR degree.uni00B0
ENCODING 176
SWIDTH 568 0
DWIDTH 12 0
BBX 6 6 3 9
BITMAP
3000
4800
8400
8400
4800
3000
ENDCHAR
STARTCHAR plusminus.uni00B1
ENCODING 177
SWIDTH 568 0
DWIDTH 12 0
BBX 10 12 1 0
BITMAP
0C00
0C00
0C00
FFC0
FFC0
0C00
0C00
0C00
0000
0000
FFC0
FFC0
ENDCHAR
STARTCHAR twosuperior.uni00B2
ENCODING 178
SWIDTH 568 0
DWIDTH 12 0
BBX 6 9 3 6
BITMAP
7800
8400
0400
0800
1000
2000
4000
8000
FC00
ENDCHAR
STARTCHAR threesuperior.uni00B3
ENCODING 179
SWIDTH 568 0
DWIDTH 12 0
BBX 6 9 3 6
BITMAP
7800
8400
0400
0400
3800
0400
0400
8400
7800
ENDCHAR
STARTCHAR acute.uni00B4
ENCODING 180
SWIDTH 568 0
DWIDTH 12 0
BBX 5 4 5 13
BITMAP
3800
7000
6000
C000
ENDCHAR
STARTCHAR micro.uni00B5
ENCODING 181
SWIDTH 568 0
DWIDTH 12 0
BBX 10 15 1 -4
BITMAP
C180
C180
C180
C180
C180
C180
C180
C180
E380
FFC0
DCC0
C000
C000
C000
C000
ENDCHAR
STARTCHAR paragraph.uni00B6
ENCODING 182
SWIDTH 568 0
DWIDTH 12 0
BBX 10 17 1 -2
BITMAP
1FC0
7E40
7E40
FE40
FE40
FE40
7E40
7E40
1E40
0240
0240
0240
0240
0240
0240
0240
0240
ENDCHAR
STARTCHAR periodcentered.uni00B7
ENCODING 183
SWIDTH 568 0
DWIDTH 12 0
BBX 2 3 5 6
BITMAP
C000
C000
C000
ENDCHAR
STARTCHAR cedilla.uni00B8
ENCODING 184
SWIDTH 568 0
DWIDTH 12 0
BBX 4 4 4 -4
BITMAP
2000
1000
1000
E000
ENDCHAR
STARTCHAR onesuperior.uni00B9
ENCODING 185
SWIDTH 568 0
DWIDTH 12 0
BBX 5 9 4 6
BITMAP
E000
2000
2000
2000
2000
2000
2000
2000
F800
ENDCHAR
STARTCHAR ordmasculine.uni00BA
ENCODING 186
SWIDTH 568 0
DWIDTH 12 0
BBX 7 10 2 5
BITMAP
3800
4400
8200
8200
8200
8200
4400
3800
0000
FE00
ENDCHAR
STARTCHAR guillemotright.uni00BB
ENCODING 187
SWIDTH 568 0
DWIDTH 12 0
BBX 10 9 2 2
BITMAP
8400
C600
6300
3180
18C0
3180
6300
C600
8400
ENDCHAR
STARTCHAR onequarter.uni00BC
ENCODING 188
SWIDTH 568 0
DWIDTH 12 0
BBX 10 21 1 -4
BITMAP
E000
2000
2000
2000
2000
2000
2000
2000
F800
0380
1C00
E000
0080
0180
0280
0480
0880
0880
0FC0
0080
0080
ENDCHAR
STARTCHAR onehalf.uni00BD
ENCODING 189
SWIDTH 568 0
DWIDTH 12 0
BBX 10 21 1 -4
BITMAP
E000
2000
2000
2000
2000
2000
2000
2000
F800
0380
1C00
E000
0780
0840
0040
0080
0100
0200
0400
0800
0FC0
ENDCHAR
STARTCHAR threequarters.uni00BE
ENCODING 190
SWIDTH 568 0
DWIDTH 12 0
BBX 10 21 1 -4
BITMAP
7800
8400
0400
0400
3800
0400
0400
8400
7800
0380
1C00
E000
0080
0180
0280
0480
0880
0880
0FC0
0080
0080
ENDCHAR
STARTCHAR questiondown.uni00BF
ENCODING 191
SWIDTH 568 0
DWIDTH 12 0
BBX 8 15 1 0
BITMAP
0C00
0C00
0C00
0000
0000
0C00
0C00
0C00
3800
7000
E000
C000
C100
7F00
3E00
ENDCHAR
STARTCHAR Agrave.uni00C0
ENCODING 192
SWIDTH 568 0
DWIDTH 12 0
BBX 10 20 1 0
BITMAP
1800
0C00
0600
0000
0000
0C00
0C00
1E00
1E00
1E00
1200
3300
3300
3300
7F80
7F80
6180
6180
C0C0
C0C0
ENDCHAR
STARTCHAR Aacute.uni00C1
ENCODING 193
SWIDTH 568 0
DWIDTH 12 0
BBX 10 20 1 0
BITMAP
0300
0600
0C00
0000
0000
0C00
0C00
1E00
1E00
1E00
1200
3300
3300
3300
7F80
7F80
6180
6180
C0C0
C0C0
ENDCHAR
STARTCHAR Acircumflex.uni00C2
ENCODING 194
SWIDTH 568 0
DWIDTH 12 0
BBX 10 20 1 0
BITMAP
0C00
1E00
3300
0000
0000
0C00
0C00
1E00
1E00
1E00
1200
3300
3300
3300
7F80
7F80
6180
6180
C0C0
C0C0
ENDCHAR
STARTCHAR Atilde.uni00C3
ENCODING 195
SWIDTH 568 0
DWIDTH 12 0
BBX 10 19 1 0
BITMAP
1900
2600
0000
0000
0C00
0C00
1E00
1E00
1E00
1200
3300
3300
3300
7F80
7F80
6180
6180
C0C0
C0C0
ENDCHAR
STARTCHAR Adieresis.uni00C4
ENCODING 196
SWIDTH 568 0
DWIDTH 12 0
BBX 10 19 1 0
BITMAP
3300
3300
0000
0000
0C00
0C00
1E00
1E00
1E00
1200
3300
3300
3300
7F80
7F80
6180
6180
C0C0
C0C0
ENDCHAR
STARTCHAR Aring.uni00C5
ENCODING 197
SWIDTH 568 0
DWIDTH 12 0
BBX 10 20 1 0
BITMAP
0C00
1200
1200
0C00
0000
0C00
0C00
1E00
1E00
1E00
1200
3300
3300
3300
7F80
7F80
6180
6180
C0C0
C0C0
ENDCHAR
STARTCHAR AE.uni00C6
ENCODING 198
SWIDTH 568 0
DWIDTH 12 0
BBX 11 15 0 0
BITMAP
0FE0
1FE0
1B00
1B00
1B00
3B00
33E0
33E0
3300
7F00
7F00
6300
6300
C3E0
C3E0
ENDCHAR
STARTCHAR Ccedilla.uni00C7
ENCODING 199
SWIDTH 568 0
DWIDTH 12 0
BBX 10 19 1 -4
BITMAP
0F80
3FC0
7040
6000
C000
C000
C000
C000
C000
C000
C000
6000
7040
3FC0
0F80
0400
0200
0E00
0C00
ENDCHAR
STARTCHAR Egrave.uni00C8
ENCODING 200
SWIDTH 568 0
DWIDTH 12 0
BBX 10 20 1 0
BITMAP
1800
0C00
0600
0000
0000
FFC0
FFC0
C000
C000
C000
C000
FFC0
FFC0
C000
C000
C000
C000
C000
FFC0
FFC0
ENDCHAR
STARTCHAR Eacute.uni00C9
ENCODING 201
SWIDTH 568 0
DWIDTH 12 0
BBX 10 20 1 0
BITMAP
0300
0600
0C00
0000
0000
FFC0
FFC0
C000
C000
C000
C000
FFC0
FFC0
C000
C000
C000
C000
C000
FFC0
FFC0
ENDCHAR
STARTCHAR Ecircumflex.uni00CA
ENCODING 202
SWIDTH 568 0
DWIDTH 12 0
BBX 10 20 1 0
BITMAP
0C00
1E00
3300
0000
0000
FFC0
FFC0
C000
C000
C000
C000
FFC0
FFC0
C000
C000
C000
C000
C000
FFC0
FFC0
ENDCHAR
STARTCHAR Edieresis.uni00CB
ENCODING 203
SWIDTH 568 0
DWIDTH 12 0
BBX 10 19 1 0
BITMAP
3300
3300
0000
0000
FFC0
FFC0
C000
C000
C000
C000
FFC0
FFC0
C000
C000
C000
C000
C000
FFC0
FFC0
ENDCHAR
STARTCHAR Igrave.uni00CC
ENCODING 204
SWIDTH 568 0
DWIDTH 12 0
BBX 8 20 2 0
BITMAP
3000
1800
0C00
0000
0000
FF00
FF00
1800
1800
1800
1800
1800
1800
1800
1800
1800
1800
1800
FF00
FF00
ENDCHAR
STARTCHAR Iacute.uni00CD
ENCODING 205
SWIDTH 568 0
DWIDTH 12 0
BBX 8 20 2 0
BITMAP
0600
0C00
1800
0000
0000
FF00
FF00
1800
1800
1800
1800
1800
1800
1800
1800
1800
1800
1800
FF00
FF00
ENDCHAR
STARTCHAR Icircumflex.uni00CE
ENCODING 206
SWIDTH 568 0
DWIDTH 12 0
BBX 8 20 2 0
BITMAP
1800
3C00
6600
0000
0000
FF00
FF00
1800
1800
1800
1800
1800
1800
1800
1800
1800
1800
1800
FF00
FF00
ENDCHAR
STARTCHAR Idieresis.uni00CF
ENCODING 207
SWIDTH 568 0
DWIDTH 12 0
BBX 8 19 2 0
BITMAP
6600
6600
0000
0000
FF00
FF00
1800
1800
1800
1800
1800
1800
1800
1800
1800
1800
1800
FF00
FF00
ENDCHAR
STARTCHAR Eth.uni00D0
ENCODING 208
SWIDTH 568 0
DWIDTH 12 0
BBX 11 15 0 0
BITMAP
7E00
7F80
61C0
60C0
6060
6060
FC60
FC60
6060
6060
6060
60C0
61C0
7F80
7E00
ENDCHAR
STARTCHAR Ntilde.uni00D1
ENCODING 209
SWIDTH 568 0
DWIDTH 12 0
BBX 10 19 1 0
BITMAP
1900
2600
0000
0000
E0C0
E0C0
F0C0
F0C0
D8C0
D8C0
C8C0
CCC0
C4C0
C6C0
C6C0
C3C0
C3C0
C1C0
C1C0
ENDCHAR
STARTCHAR Ograve.uni00D2
ENCODING 210
SWIDTH 568 0
DWIDTH 12 0
BBX 10 20 1 0
BITMAP
1800
0C00
0600
0000
0000
1E00
7F80
6180
E1C0
C0C0
C0C0
C0C0
C0C0
C0C0
C0C0
C0C0
E1C0
6180
7F80
1E00
ENDCHAR
STARTCHAR Oacute.uni00D3
ENCODING 211
SWIDTH 568 0
DWIDTH 12 0
BBX 10 20 1 0
BITMAP
0300
0600
0C00
0000
0000
1E00
7F80
6180
E1C0
C0C0
C0C0
C0C0
C0C0
C0C0
C0C0
C0C0
E1C0
6180
7F80
1E00
ENDCHAR
STARTCHAR Ocircumflex.uni00D4
ENCODING 212
SWIDTH 568 0
DWIDTH 12 0
BBX 10 20 1 0
BITMAP
0C00
1E00
3300
0000
0000
1E00
7F80
6180
E1C0
C0C0
C0C0
C0C0
C0C0
C0C0
C0C0
C0C0
E1C0
6180
7F80
1E00
ENDCHAR
STARTCHAR Otilde.uni00D5
ENCODING 213
SWIDTH 568 0
DWIDTH 12 0
BBX 10 19 1 0
BITMAP
1900
2600
0000
0000
1E00
7F80
6180
E1C0
C0C0
C0C0
C0C0
C0C0
C0C0
C0C0
C0C0
E1C0
6180
7F80
1E00
ENDCHAR
STARTCHAR Odieresis.uni00D6
ENCODING 214
SWIDTH 568 0
DWIDTH 12 0
BBX 10 19 1 0
BITMAP
3300
3300
0000
0000
1E00
7F80
6180
E1C0
C0C0
C0C0
C0C0
C0C0
C0C0
C0C0
C0C0
E1C0
6180
7F80
1E00
ENDCHAR
STARTCHAR multiply.uni00D7
ENCODING 215
SWIDTH 568 0
DWIDTH 12 0
BBX 9 10 1 1
BITMAP
8080
C180
6300
3600
1C00
1C00
3600
6300
C180
8080
ENDCHAR
STARTCHAR Oslash.uni00D8
ENCODING 216
SWIDTH 568 0
DWIDTH 12 0
BBX 12 15 0 0
BITMAP
0F10
3FE0
30C0
70E0
60E0
6160
6260
6260
6460
6860
7060
70E0
30C0
7FC0
8F00
ENDCHAR
STARTCHAR Ugrave.uni00D9
ENCODING 217
SWIDTH 568 0
DWIDTH 12 0
BBX 10 20 1 0
BITMAP
1800
0C00
0600
0000
0000
C0C0
C0C0
C0C0
C0C0
C0C0
C0C0
C0C0
C0C0
C0C0
C0C0
C0C0
C0C0
6180
7F80
3F00
ENDCHAR
STARTCHAR Uacute.uni00DA
ENCODING 218
SWIDTH 568 0
DWIDTH 12 0
BBX 10 20 1 0
BITMAP
0300
0600
0C00
0000
0000
C0C0
C0C0
C0C0
C0C0
C0C0
C0C0
C0C0
C0C0
C0C0
C0C0
C0C0
C0C0
6180
7F80
3F00
ENDCHAR
STARTCHAR Ucircumflex.uni00DB
ENCODING 219
SWIDTH 568 0
DWIDTH 12 0
BBX 10 20 1 0
BITMAP
0C00
1E00
3300
0000
0000
C0C0
C0C0
C0C0
C0C0
C0C0
C0C0
C0C0
C0C0
C0C0
C0C0
C0C0
C0C0
6180
7F80
3F00
ENDCHAR
STARTCHAR Udieresis.uni00DC
ENCODING 220
SWIDTH 568 0
DWIDTH 12 0
BBX 10 19 1 0
BITMAP
3300
3300
0000
0000
C0C0
C0C0
C0C0
C0C0
C0C0
C0C0
C0C0
C0C0
C0C0
C0C0
C0C0
C0C0
6180
7F80
3F00
ENDCHAR
STARTCHAR Yacute.uni00DD
ENCODING 221
SWIDTH 568 0
DWIDTH 12 0
BBX 12 20 0 0
BITMAP
0180
0300
0600
0000
0000
E070
6060
30C0
30C0
1980
1F80
0F00
0600
0600
0600
0600
0600
0600
0600
0600
ENDCHAR
STARTCHAR Thorn.uni00DE
ENCODING 222
SWIDTH 568 0
DWIDTH 12 0
BBX 10 15 1 0
BITMAP
C000
C000
C000
FF00
FF80
C1C0
C0C0
C0C0
C0C0
C1C0
FF80
FF00
C000
C000
C000
ENDCHAR
STARTCHAR germandbls.uni00DF
ENCODING 223
SWIDTH 568 0
DWIDTH 12 0
BBX 9 16 1 0
BITMAP
3C00
7E00
6700
C300
C600
CC00
D800
D800
CE00
C700
C380
C180
C180
D380
DF00
CE00
ENDCHAR
STARTCHAR agrave.uni00E0
ENCODING 224
SWIDTH 568 0
DWIDTH 12 0
BBX 9 17 1 0
BITMAP
3800
1C00
0C00
0600
0000
0000
3E00
7F00
4380
0180
3F80
7F80
E180
C180
C380
FF80
3D80
ENDCHAR
STARTCHAR aacute.uni00E1
ENCODING 225
SWIDTH 568 0
DWIDTH 12 0
BBX 9 17 1 0
BITMAP
0380
0700
0600
0C00
0000
0000
3E00
7F00
4380
0180
3F80
7F80
E180
C180
C380
FF80
3D80
ENDCHAR
STARTCHAR acircumflex.uni00E2
ENCODING 226
SWIDTH 568 0
DWIDTH 12 0
BBX 9 17 1 0
BITMAP
0C00
1E00
1200
3300
0000
0000
3E00
7F00
4380
0180
3F80
7F80
E180
C180
C380
FF80
3D80
ENDCHAR
STARTCHAR atilde.uni00E3
ENCODING 227
SWIDTH 568 0
DWIDTH 12 0
BBX 9 16 1 0
BITMAP
1900
2D00
2600
0000
0000
3E00
7F00
4380
0180
3F80
7F80
E180
C180
C380
FF80
3D80
ENDCHAR
STARTCHAR adieresis.uni00E4
ENCODING 228
SWIDTH 568 0
DWIDTH 12 0
BBX 9 16 1 0
BITMAP
3300
3300
0000
0000
0000
3E00
7F00
4380
0180
3F80
7F80
E180
C180
C380
FF80
3D80
ENDCHAR
STARTCHAR aring.uni00E5
ENCODING 229
SWIDTH 568 0
DWIDTH 12 0
BBX 9 19 1 0
BITMAP
1C00
2200
2200
2200
1C00
0000
0000
0000
3E00
7F00
4380
0180
3F80
7F80
E180
C180
C380
FF80
3D80
ENDCHAR
STARTCHAR ae.uni00E6
ENCODING 230
SWIDTH 568 0
DWIDTH 12 0
BBX 11 11 0 0
BITMAP
39C0
7FE0
4660
0660
3FE0
7FE0
C600
C600
C620
FFE0
79C0
ENDCHAR
STARTCHAR ccedilla.uni00E7
ENCODING 231
SWIDTH 568 0
DWIDTH 12 0
BBX 8 15 1 -4
BITMAP
1E00
7F00
6100
C000
C000
C000
C000
C000
6100
7F00
1E00
0800
0400
1C00
1800
ENDCHAR
STARTCHAR egrave.uni00E8
ENCODING 232
SWIDTH 568 0
DWIDTH 12 0
BBX 9 17 1 0
BITMAP
3800
1C00
0C00
0600
0000
0000
1E00
7F00
6380
C180
FF80
FF80
C000
C000
6080
7F80
1F00
ENDCHAR
STARTCHAR eacute.uni00E9
ENCODING 233
SWIDTH 568 0
DWIDTH 12 0
BBX 9 17 1 0
BITMAP
0380
0700
0600
0C00
0000
0000
1E00
7F00
6380
C180
FF80
FF80
C000
C000
6080
7F80
1F00
ENDCHAR
STARTCHAR ecircumflex.uni00EA
ENCODING 234
SWIDTH 568 0
DWIDTH 12 0
BBX 9 17 1 0
BITMAP
0C00
1E00
1200
3300
0000
0000
1E00
7F00
6380
C180
FF80
FF80
C000
C000
6080
7F80
1F00
ENDCHAR
STARTCHAR edieresis.uni00EB
ENCODING 235
SWIDTH 568 0
DWIDTH 12 0
BBX 9 16 1 0
BITMAP
3300
3300
0000
0000
0000
1E00
7F00
6380
C180
FF80
FF80
C000
C000
6080
7F80
1F00
ENDCHAR
STARTCHAR igrave.uni00EC
ENCODING 236
SWIDTH 568 0
DWIDTH 12 0
BBX 10 17 1 0
BITMAP
3800
1C00
0C00
0600
0000
0000
7C00
7C00
0C00
0C00
0C00
0C00
0C00
0C00
0C00
FFC0
FFC0
ENDCHAR
STARTCHAR iacute.uni00ED
ENCODING 237
SWIDTH 568 0
DWIDTH 12 0
BBX 10 17 1 0
BITMAP
0380
0700
0600
0C00
0000
0000
7C00
7C00
0C00
0C00
0C00
0C00
0C00
0C00
0C00
FFC0
FFC0
ENDCHAR
STARTCHAR icircumflex.uni00EE
ENCODING 238
SWIDTH 568 0
DWIDTH 12 0
BBX 10 17 1 0
BITMAP
0C00
1E00
1200
3300
0000
0000
7C00
7C00
0C00
0C00
0C00
0C00
0C00
0C00
0C00
FFC0
FFC0
ENDCHAR
STARTCHAR idieresis.uni00EF
ENCODING 239
SWIDTH 568 0
DWIDTH 12 0
BBX 10 16 1 0
BITMAP
3300
3300
0000
0000
0000
7C00
7C00
0C00
0C00
0C00
0C00
0C00
0C00
0C00
FFC0
FFC0
ENDCHAR
STARTCHAR eth.uni00F0
ENCODING 240
SWIDTH 568 0
DWIDTH 12 0
BBX 9 16 1 0
BITMAP
3000
3F00
3800
6C00
0E00
3F00
7F00
6380
C180
C180
C180
C180
C180
6300
7F00
3E00
ENDCHAR
STARTCHAR ntilde.uni00F1
ENCODING 241
SWIDTH 568 0
DWIDTH 12 0
BBX 9 16 1 0
BITMAP
1900
2D00
2600
0000
0000
CE00
FF00
E380
C180
C180
C180
C180
C180
C180
C180
C180
ENDCHAR
STARTCHAR ograve.uni00F2
ENCODING 242
SWIDTH 568 0
DWIDTH 12 0
BBX 9 17 1 0
BITMAP
7000
3800
1800
0C00
0000
0000
3E00
7F00
6300
C180
C180
C180
C180
C180
6300
7F00
3E00
ENDCHAR
STARTCHAR oacute.uni00F3
ENCODING 243
SWIDTH 568 0
DWIDTH 12 0
BBX 9 17 1 0
BITMAP
0380
0700
0600
0C00
0000
0000
3E00
7F00
6300
C180
C180
C180
C180
C180
6300
7F00
3E00
ENDCHAR
STARTCHAR ocircumflex.uni00F4
ENCODING 244
SWIDTH 568 0
DWIDTH 12 0
BBX 9 17 1 0
BITMAP
0C00
1E00
1200
3300
0000
0000
3E00
7F00
6300
C180
C180
C180
C180
C180
6300
7F00
3E00
ENDCHAR
STARTCHAR otilde.uni00F5
ENCODING 245
SWIDTH 568 0
DWIDTH 12 0
BBX 9 16 1 0
BITMAP
1900
2D00
2600
0000
0000
3E00
7F00
6300
C180
C180
C180
C180
C180
6300
7F00
3E00
ENDCHAR
STARTCHAR odieresis.uni00F6
ENCODING 246
SWIDTH 568 0
DWIDTH 12 0
BBX 9 16 1 0
BITMAP
3300
3300
0000
0000
0000
3E00
7F00
6300
C180
C180
C180
C180
C180
6300
7F00
3E00
ENDCHAR
STARTCHAR divide.uni00F7
ENCODING 247
SWIDTH 568 0
DWIDTH 12 0
BBX 10 12 1 1
BITMAP
0C00
0C00
0C00
0000
0000
FFC0
FFC0
0000
0000
0C00
0C00
0C00
ENDCHAR
STARTCHAR oslash.uni00F8
ENCODING 248
SWIDTH 568 0
DWIDTH 12 0
BBX 10 11 1 0
BITMAP
3CC0
7F80
E300
C380
C580
C980
D180
E180
6380
FF00
9E00
ENDCHAR
STARTCHAR ugrave.uni00F9
ENCODING 249
SWIDTH 568 0
DWIDTH 12 0
BBX 9 17 1 0
BITMAP
3800
1C00
0C00
0600
0000
0000
C180
C180
C180
C180
C180
C180
C180
C180
E380
7F80
3980
ENDCHAR
STARTCHAR uacute.uni00FA
ENCODING 250
SWIDTH 568 0
DWIDTH 12 0
BBX 9 17 1 0
BITMAP
0380
0700
0600
0C00
0000
0000
C180
C180
C180
C180
C180
C180
C180
C180
E380
7F80
3980
ENDCHAR
STARTCHAR x-hat.uni0302
ENCODING 770
SWIDTH 568 0
DWIDTH 12 0
BBX 9 16 1 0
BITMAP
1C00
7700
E380
0000
0000
E380
6300
3600
3E00
1C00
1C00
1C00
3E00
3600
6300
E380
ENDCHAR
STARTCHAR x-bar.uni0304
ENCODING 772
SWIDTH 568 0
DWIDTH 12 0
BBX 9 16 1 0
BITMAP
7F00
7F00
0000
0000
0000
E380
6300
3600
3E00
1C00
1C00
1C00
3E00
3600
6300
E380
ENDCHAR
STARTCHAR y-hat.uni0177
ENCODING 375
SWIDTH 568 0
DWIDTH 12 0
BBX 9 20 1 -4
BITMAP
1C00
7700
E380
0000
0000
C180
6300
6300
6300
3600
3600
3E00
1C00
1C00
0C00
1C00
1800
1800
7000
7000
ENDCHAR
STARTCHAR thorn.uni00FE
ENCODING 254
SWIDTH 568 0
DWIDTH 12 0
BBX 9 20 1 -4
BITMAP
C000
C000
C000
C000
C000
DE00
FF00
E300
C180
C180
C180
C180
C180
E300
FF00
DE00
C000
C000
C000
C000
ENDCHAR
STARTCHAR y-bar.uni0233
ENCODING 563
SWIDTH 568 0
DWIDTH 12 0
BBX 9 20 1 -4
BITMAP
7F00
7F00
0000
0000
0000
C180
6300
6300
6300
3600
3600
3E00
1C00
1C00
0C00
1C00
1800
1800
7000
7000
ENDCHAR
STARTCHAR Cacute.uni0106
ENCODING 262
SWIDTH 568 0
DWIDTH 12 0
BBX 10 20 1 0
BITMAP
0180
0300
0600
0000
0000
0F80
3FC0
7040
6000
C000
C000
C000
C000
C000
C000
C000
6000
7040
3FC0
0F80
ENDCHAR
STARTCHAR cacute.uni0107
ENCODING 263
SWIDTH 568 0
DWIDTH 12 0
BBX 9 17 1 0
BITMAP
0380
0700
0600
0C00
0000
0000
1E00
7F00
6100
C000
C000
C000
C000
C000
6100
7F00
1E00
ENDCHAR
STARTCHAR Ccaron.uni010C
ENCODING 268
SWIDTH 568 0
DWIDTH 12 0
BBX 10 20 1 0
BITMAP
1980
0F00
0600
0000
0000
0F80
3FC0
7040
6000
C000
C000
C000
C000
C000
C000
C000
6000
7040
3FC0
0F80
ENDCHAR
STARTCHAR ccaron.uni010D
ENCODING 269
SWIDTH 568 0
DWIDTH 12 0
BBX 9 17 1 0
BITMAP
1980
0900
0F00
0600
0000
0000
1E00
7F00
6100
C000
C000
C000
C000
C000
6100
7F00
1E00
ENDCHAR
STARTCHAR dcroat.uni0111
ENCODING 273
SWIDTH 568 0
DWIDTH 12 0
BBX 11 16 1 0
BITMAP
0180
0180
0180
0FE0
0180
3D80
7F80
6380
C180
C180
C180
C180
C180
6380
7F80
3D80
ENDCHAR
STARTCHAR Gbreve.uni011E
ENCODING 286
SWIDTH 568 0
DWIDTH 12 0
BBX 10 20 1 0
BITMAP
2100
3300
1E00
0000
0000
1F00
3F80
7080
6000
C000
C000
C000
C3C0
C3C0
C0C0
C0C0
60C0
70C0
3FC0
1F00
ENDCHAR
STARTCHAR gbreve.uni011F
ENCODING 287
SWIDTH 568 0
DWIDTH 12 0
BBX 9 21 1 -4
BITMAP
2100
3300
1E00
0000
0000
0000
3D80
7F80
6380
C180
C180
C180
C180
C180
6380
7F80
3D80
0180
4380
7F00
3E00
ENDCHAR
STARTCHAR Idotaccent.uni0130
ENCODING 304
SWIDTH 568 0
DWIDTH 12 0
BBX 8 19 2 0
BITMAP
1800
1800
0000
0000
FF00
FF00
1800
1800
1800
1800
1800
1800
1800
1800
1800
1800
1800
FF00
FF00
ENDCHAR
STARTCHAR dotlessi.uni0131
ENCODING 305
SWIDTH 568 0
DWIDTH 12 0
BBX 10 11 1 0
BITMAP
7C00
7C00
0C00
0C00
0C00
0C00
0C00
0C00
0C00
FFC0
FFC0
ENDCHAR
STARTCHAR Lslash.uni0141
ENCODING 321
SWIDTH 568 0
DWIDTH 12 0
BBX 11 15 0 0
BITMAP
6000
6000
6000
6000
6300
6E00
7800
6000
E000
6000
6000
6000
6000
7FE0
7FE0
ENDCHAR
STARTCHAR lslash.uni0142
ENCODING 322
SWIDTH 568 0
DWIDTH 12 0
BBX 9 16 1 0
BITMAP
F800
F800
1800
1800
1880
1B80
1E00
3800
F800
9800
1800
1800
1800
1C00
0F80
0780
ENDCHAR
STARTCHAR OE.uni0152
ENCODING 338
SWIDTH 568 0
DWIDTH 12 0
BBX 10 15 1 0
BITMAP
3FC0
7FC0
6C00
CC00
CC00
CC00
CFC0
CFC0
CC00
CC00
CC00
CC00
6C00
7FC0
3FC0
ENDCHAR
STARTCHAR oe.uni0153
ENCODING 339
SWIDTH 568 0
DWIDTH 12 0
BBX 12 11 0 0
BITMAP
3CE0
7FF0
E730
C330
C3F0
C3F0
C300
C300
E710
7FF0
3CE0
ENDCHAR
STARTCHAR Scedilla.uni015E
ENCODING 350
SWIDTH 568 0
DWIDTH 12 0
BBX 10 19 1 -4
BITMAP
3F00
7F80
E080
C000
C000
E000
7C00
3F00
0380
00C0
00C0
00C0
81C0
FF80
7F00
0800
0400
1C00
1800
ENDCHAR
STARTCHAR scedilla.uni015F
ENCODING 351
SWIDTH 568 0
DWIDTH 12 0
BBX 9 15 1 -4
BITMAP
3F00
7F80
C080
C000
FE00
3F00
0380
0180
8380
FF00
7E00
0800
0400
1C00
1800
ENDCHAR
STARTCHAR Scaron.uni0160
ENCODING 352
SWIDTH 568 0
DWIDTH 12 0
BBX 10 20 1 0
BITMAP
3300
1E00
0C00
0000
0000
3F00
7F80
E080
C000
C000
E000
7C00
3F00
0380
00C0
00C0
00C0
81C0
FF80
7F00
ENDCHAR
STARTCHAR scaron.uni0161
ENCODING 353
SWIDTH 568 0
DWIDTH 12 0
BBX 9 17 1 0
BITMAP
3300
1200
1E00
0C00
0000
0000
3F00
7F80
C080
C000
FE00
3F00
0380
0180
8380
FF00
7E00
ENDCHAR
STARTCHAR Ydieresis.uni0178
ENCODING 376
SWIDTH 568 0
DWIDTH 12 0
BBX 12 19 0 0
BITMAP
1980
1980
0000
0000
E070
6060
30C0
30C0
1980
1980
0F00
0F00
0600
0600
0600
0600
0600
0600
0600
ENDCHAR
STARTCHAR Zcaron.uni017D
ENCODING 381
SWIDTH 568 0
DWIDTH 12 0
BBX 10 20 1 0
BITMAP
3300
1E00
0C00
0000
0000
FFC0
FFC0
0180
0380
0300
0600
0E00
0C00
1C00
1800
3000
7000
6000
FFC0
FFC0
ENDCHAR
STARTCHAR zcaron.uni017E
ENCODING 382
SWIDTH 568 0
DWIDTH 12 0
BBX 9 17 1 0
BITMAP
3300
1200
1E00
0C00
0000
0000
FF80
FF80
0300
0600
0C00
1800
3000
6000
C000
FF80
FF80
ENDCHAR
STARTCHAR florin.uni0192
ENCODING 402
SWIDTH 568 0
DWIDTH 12 0
BBX 12 20 0 -4
BITMAP
00F0
01F0
0180
0300
0300
0300
0300
1FE0
1FE0
0700
0600
0600
0600
0600
0600
0C00
0C00
1C00
F800
F000
ENDCHAR
STARTCHAR circumflex.uni02C6
ENCODING 710
SWIDTH 568 0
DWIDTH 12 0
BBX 6 4 3 13
BITMAP
3000
7800
4800
CC00
ENDCHAR
STARTCHAR caron.uni02C7
ENCODING 711
SWIDTH 568 0
DWIDTH 12 0
BBX 6 4 3 13
BITMAP
CC00
4800
7800
3000
ENDCHAR
STARTCHAR breve.uni02D8
ENCODING 728
SWIDTH 568 0
DWIDTH 12 0
BBX 6 3 3 14
BITMAP
8400
CC00
7800
ENDCHAR
STARTCHAR dotaccent.uni02D9
ENCODING 729
SWIDTH 568 0
DWIDTH 12 0
BBX 2 2 5 14
BITMAP
C000
C000
ENDCHAR
STARTCHAR ring.uni02DA
ENCODING 730
SWIDTH 568 0
DWIDTH 12 0
BBX 5 6 3 13
BITMAP
7000
9800
8800
8800
8800
7000
ENDCHAR
STARTCHAR ogonek.uni02DB
ENCODING 731
SWIDTH 568 0
DWIDTH 12 0
BBX 3 4 5 -4
BITMAP
4000
8000
E000
6000
ENDCHAR
STARTCHAR tilde.uni02DC
ENCODING 732
SWIDTH 568 0
DWIDTH 12 0
BBX 6 3 3 13
BITMAP
6400
B400
9800
ENDCHAR
STARTCHAR hungarumlaut.uni02DD
ENCODING 733
SWIDTH 568 0
DWIDTH 12 0
BBX 8 4 3 13
BITMAP
7700
6600
4400
CC00
ENDCHAR
STARTCHAR Sigma.uni03A3
ENCODING 931
SWIDTH 568 0
DWIDTH 12 0
BBX 10 15 1 0
BITMAP
FF80
FF80
6000
3000
1800
0C00
0600
0300
0600
0C00
1800
3000
6000
FFC0
FFC0
ENDCHAR
STARTCHAR Omega.uni03A9
ENCODING 937
SWIDTH 568 0
DWIDTH 12 0
BBX 10 15 1 0
BITMAP
1E00
3F00
7380
6180
E1C0
C0C0
C0C0
C0C0
C0C0
C0C0
4080
6180
2100
F3C0
F3C0
ENDCHAR
STARTCHAR mu.uni03BC
ENCODING 956
SWIDTH 568 0
DWIDTH 12 0
BBX 10 15 1 -4
BITMAP
C180
C180
C180
C180
C180
C180
C180
C180
E380
FFC0
DCC0
C000
C000
C000
C000
ENDCHAR
STARTCHAR pi.uni03C0
ENCODING 960
SWIDTH 568 0
DWIDTH 12 0
BBX 11 11 1 0
BITMAP
FFC0
FFC0
6180
6180
6180
6180
6180
6180
6180
61E0
60E0
ENDCHAR
STARTCHAR exponent.uni1D07
ENCODING 7431
SWIDTH 568 0
DWIDTH 12 0
BBX 8 12 2 0
BITMAP
FF00
FF00
C000
C000
C000
FE00
FE00
C000
C000
C000
FF00
FF00
ENDCHAR
STARTCHAR endash.uni2013
ENCODING 8211
SWIDTH 568 0
DWIDTH 12 0
BBX 8 2 2 5
BITMAP
FF00
FF00
ENDCHAR
STARTCHAR emdash.uni2014
ENCODING 8212
SWIDTH 568 0
DWIDTH 12 0
BBX 10 2 1 4
BITMAP
FFC0
FFC0
ENDCHAR
STARTCHAR quoteleft.uni2018
ENCODING 8216
SWIDTH 568 0
DWIDTH 12 0
BBX 3 6 5 10
BITMAP
6000
6000
C000
C000
C000
C000
ENDCHAR
STARTCHAR quoteright.uni2019
ENCODING 8217
SWIDTH 568 0
DWIDTH 12 0
BBX 3 6 4 10
BITMAP
6000
6000
6000
6000
C000
C000
ENDCHAR
STARTCHAR quotesinglbase.uni201A
ENCODING 8218
SWIDTH 568 0
DWIDTH 12 0
BBX 3 6 4 -3
BITMAP
6000
6000
6000
6000
C000
C000
ENDCHAR
STARTCHAR quotedblleft.uni201C
ENCODING 8220
SWIDTH 568 0
DWIDTH 12 0
BBX 7 6 3 10
BITMAP
6600
6600
CC00
CC00
CC00
CC00
ENDCHAR
STARTCHAR quotedblright.uni201D
ENCODING 8221
SWIDTH 568 0
DWIDTH 12 0
BBX 7 6 2 10
BITMAP
6600
6600
6600
6600
CC00
CC00
ENDCHAR
STARTCHAR quotedblbase.uni201E
ENCODING 8222
SWIDTH 568 0
DWIDTH 12 0
BBX 7 6 2 -3
BITMAP
6600
6600
6600
6600
CC00
CC00
ENDCHAR
STARTCHAR dagger.uni2020
ENCODING 8224
SWIDTH 568 0
DWIDTH 12 0
BBX 10 17 1 -2
BITMAP
0C00
0C00
0C00
0C00
FFC0
FFC0
0C00
0C00
0C00
0C00
0C00
0C00
0C00
0C00
0C00
0C00
0C00
ENDCHAR
STARTCHAR daggerdbl.uni2021
ENCODING 8225
SWIDTH 568 0
DWIDTH 12 0
BBX 10 17 1 -2
BITMAP
0C00
0C00
0C00
0C00
FFC0
FFC0
0C00
0C00
0C00
0C00
0C00
FFC0
FFC0
0C00
0C00
0C00
0C00
ENDCHAR
STARTCHAR bullet.uni2022
ENCODING 8226
SWIDTH 568 0
DWIDTH 12 0
BBX 6 6 3 5
BITMAP
7800
FC00
FC00
FC00
FC00
7800
ENDCHAR
STARTCHAR ellipsis.uni2026
ENCODING 8230
SWIDTH 568 0
DWIDTH 12 0
BBX 10 3 1 0
BITMAP
CCC0
CCC0
CCC0
ENDCHAR
STARTCHAR perthousand.uni2030
ENCODING 8240
SWIDTH 568 0
DWIDTH 12 0
BBX 12 15 0 0
BITMAP
7800
CC00
8400
8400
CC00
7870
0380
1C00
E000
79E0
CF30
8610
8610
CF30
79E0
ENDCHAR
STARTCHAR guilsinglleft.uni2039
ENCODING 8249
SWIDTH 568 0
DWIDTH 12 0
BBX 5 9 3 2
BITMAP
0800
1800
3000
6000
C000
6000
3000
1800
0800
ENDCHAR
STARTCHAR guilsinglright.uni203A
ENCODING 8250
SWIDTH 568 0
DWIDTH 12 0
BBX 5 9 4 2
BITMAP
8000
C000
6000
3000
1800
3000
6000
C000
8000
ENDCHAR
STARTCHAR Euro.uni20AC
ENCODING 8364
SWIDTH 568 0
DWIDTH 12 0
BBX 10 15 0 0
BITMAP
0780
0FC0
1840
3800
3000
3000
FF00
3000
FF00
3000
3000
1800
1C40
0FC0
0780
ENDCHAR
STARTCHAR trademark.uni2122
ENCODING 8482
SWIDTH 568 0
DWIDTH 12 0
BBX 11 6 0 9
BITMAP
FC20
2660
25A0
25A0
2420
2420
ENDCHAR
STARTCHAR arrowleft.uni2190
ENCODING 8592
SWIDTH 568 0
DWIDTH 12 0
BBX 12 10 0 1
BITMAP
0C00
1800
3800
7000
FFF0
FFF0
7000
3800
1800
0C00
ENDCHAR
STARTCHAR arrowup.uni2191
ENCODING 8593
SWIDTH 568 0
DWIDTH 12 0
BBX 10 19 1 -4
BITMAP
0C00
1E00
3F00
7F80
EDC0
8C40
0C00
0C00
0C00
0C00
0C00
0C00
0C00
0C00
0C00
0C00
0C00
0C00
0C00
ENDCHAR
STARTCHAR arrowright.uni2192
ENCODING 8594
SWIDTH 568 0
DWIDTH 12 0
BBX 12 10 0 1
BITMAP
0300
0180
01C0
00E0
FFF0
FFF0
00E0
01C0
0180
0300
ENDCHAR
STARTCHAR arrowdown.uni2193
ENCODING 8595
SWIDTH 568 0
DWIDTH 12 0
BBX 10 19 1 -4
BITMAP
0C00
0C00
0C00
0C00
0C00
0C00
0C00
0C00
0C00
0C00
0C00
0C00
0C00
8C40
EDC0
7F80
3F00
1E00
0C00
ENDCHAR
STARTCHAR carriagereturn.uni21B5
ENCODING 8629
SWIDTH 568 0
DWIDTH 12 0
BBX 11 14 0 0
BITMAP
0060
0060
0060
0060
0C60
1860
3860
7060
FFE0
FFC0
7000
3800
1800
0C00
ENDCHAR
STARTCHAR partialdiff.uni2202
ENCODING 8706
SWIDTH 568 0
DWIDTH 12 0
BBX 8 14 2 0
BITMAP
1C00
3200
0200
0100
0100
0100
3900
6700
C300
C300
C200
C200
4400
3800
ENDCHAR
STARTCHAR Delta.uni2206
ENCODING 8710
SWIDTH 568 0
DWIDTH 12 0
BBX 12 16 0 0
BITMAP
0600
0600
0F00
0F00
0F00
1980
1980
1980
39C0
30C0
30C0
70E0
6060
6060
FFF0
FFF0
ENDCHAR
STARTCHAR Pi.uni03A0
ENCODING 928
SWIDTH 568 0
DWIDTH 12 0
BBX 10 15 1 0
BITMAP
FFC0
FFC0
C0C0
C0C0
C0C0
C0C0
C0C0
C0C0
C0C0
C0C0
C0C0
C0C0
C0C0
C0C0
C0C0
ENDCHAR
STARTCHAR summation.uni2211
ENCODING 8721
SWIDTH 568 0
DWIDTH 12 0
BBX 9 20 1 -4
BITMAP
FF80
C000
4000
6000
2000
3000
1000
1800
0800
0C00
0C00
0800
1800
1000
3000
2000
6000
4000
C000
FF80
ENDCHAR
STARTCHAR minus.uni2212
ENCODING 8722
SWIDTH 568 0
DWIDTH 12 0
BBX 8 2 2 6
BITMAP
FF00
FF00
ENDCHAR
STARTCHAR slashdiv.uni2215
ENCODING 8725
SWIDTH 568 0
DWIDTH 12 0
BBX 10 17 1 -2
BITMAP
00C0
0180
0180
0300
0300
0600
0600
0C00
0C00
1800
1800
3000
3000
6000
6000
C000
C000
ENDCHAR
STARTCHAR bulletop.uni2219
ENCODING 8729
SWIDTH 568 0
DWIDTH 12 0
BBX 2 3 5 6
BITMAP
C000
C000
C000
ENDCHAR
STARTCHAR radical.uni221A
ENCODING 8730
SWIDTH 568 0
DWIDTH 12 0
BBX 11 16 1 0
BITMAP
00E0
00E0
0080
0080
0180
0180
E100
E100
1300
1300
1200
1200
1E00
1E00
0C00
0C00
ENDCHAR
STARTCHAR infinity.uni221E
ENCODING 8734
SWIDTH 568 0
DWIDTH 12 0
BBX 11 8 0 2
BITMAP
3180
4A40
8E20
8420
8420
8E20
4A40
3180
ENDCHAR
STARTCHAR mesangle.uni2221
ENCODING 8737
SWIDTH 568 0
DWIDTH 12 0
BBX 12 14 0 0
BITMAP
00C0
0180
0100
0300
0600
0600
0C00
0E00
1B00
3980
3180
6080
7FF0
FFF0
ENDCHAR
STARTCHAR integral.uni222B
ENCODING 8747
SWIDTH 568 0
DWIDTH 12 0
BBX 10 20 1 -4
BITMAP
03C0
02C0
04C0
0400
0C00
0C00
0C00
0C00
0C00
0C00
0C00
0C00
0C00
0C00
0C00
0C00
0800
C800
D000
F000
ENDCHAR
STARTCHAR approxequal.uni2248
ENCODING 8776
SWIDTH 568 0
DWIDTH 12 0
BBX 10 7 1 3
BITMAP
7840
FFC0
8780
0000
7840
FFC0
8780
ENDCHAR
STARTCHAR notequal.uni2260
ENCODING 8800
SWIDTH 568 0
DWIDTH 12 0
BBX 10 12 1 0
BITMAP
0080
0180
0300
FFC0
FFC0
0C00
0C00
FFC0
FFC0
3000
6000
4000
ENDCHAR
STARTCHAR lessequal.uni2264
ENCODING 8804
SWIDTH 568 0
DWIDTH 12 0
BBX 10 11 1 0
BITMAP
0040
03C0
1F00
F800
C000
F800
1F00
03C0
0040
FFC0
FFC0
ENDCHAR
STARTCHAR greaterequal.uni2265
ENCODING 8805
SWIDTH 568 0
DWIDTH 12 0
BBX 10 11 1 0
BITMAP
8000
F000
3E00
07C0
00C0
07C0
3E00
F000
8000
FFC0
FFC0
ENDCHAR
STARTCHAR lf.uni240A
ENCODING 9226
SWIDTH 568 0
DWIDTH 12 0
BBX 11 17 0 -1
BITMAP
C000
C000
C000
C000
C000
C000
F800
F800
03E0
03E0
0300
0300
03E0
0300
0300
0300
0300
ENDCHAR
STARTCHAR esc.uni241B
ENCODING 9243
SWIDTH 568 0
DWIDTH 12 0
BBX 12 19 0 -3
BITMAP
E000
8000
8000
E000
8000
8700
E800
0800
0400
0200
0100
0100
0E00
0070
0080
0080
0080
0080
0070
ENDCHAR
STARTCHAR bdlvr.uni251C
ENCODING 9500
SWIDTH 568 0
DWIDTH 12 0
BBX 7 19 3 -3
BITMAP
C000
C000
C000
C000
C000
C000
C000
C000
C000
FE00
FE00
C000
C000
C000
C000
C000
C000
C000
C000
ENDCHAR
STARTCHAR shade.uni2592
ENCODING 9618
SWIDTH 568 0
DWIDTH 12 0
BBX 12 21 0 -4
BITMAP
5550
0000
AAA0
0000
5550
0000
AAA0
0000
5550
0000
AAA0
0000
5550
0000
AAA0
0000
5550
0000
AAA0
0000
5550
ENDCHAR
STARTCHAR filledbox.uni25A0
ENCODING 9632
SWIDTH 568 0
DWIDTH 12 0
BBX 8 9 2 2
BITMAP
FF00
FF00
FF00
FF00
FF00
FF00
FF00
FF00
FF00
ENDCHAR
STARTCHAR triagup.uni25B2
ENCODING 9650
SWIDTH 568 0
DWIDTH 12 0
BBX 12 11 0 0
BITMAP
0600
0600
0F00
0F00
1F80
1F80
3FC0
3FC0
7FE0
7FE0
FFF0
ENDCHAR
STARTCHAR triagright.uni25B6
ENCODING 9654
SWIDTH 568 0
DWIDTH 12 0
BBX 11 12 1 1
BITMAP
8000
E000
F800
FE00
FF80
FFE0
FFE0
FF80
FE00
F800
E000
8000
ENDCHAR
STARTCHAR triagdn.uni25BC
ENCODING 9660
SWIDTH 568 0
DWIDTH 12 0
BBX 12 11 0 1
BITMAP
FFF0
7FE0
7FE0
3FC0
3FC0
1F80
1F80
0F00
0F00
0600
0600
ENDCHAR
STARTCHAR lozenge.uni25CA
ENCODING 9674
SWIDTH 568 0
DWIDTH 12 0
BBX 10 18 1 -3
BITMAP
0C00
0C00
1200
1200
2100
2100
4080
4080
8040
8040
4080
4080
2100
2100
1200
1200
0C00
0C00
ENDCHAR
STARTCHAR fi.uniFB01
ENCODING 64257
SWIDTH 568 0
DWIDTH 12 0
BBX 10 16 0 0
BITMAP
1CC0
3CC0
6000
6000
6000
FFC0
FFC0
60C0
60C0
60C0
60C0
60C0
60C0
60C0
60C0
60C0
ENDCHAR
STARTCHAR fl.uniFB02
ENCODING 64258
SWIDTH 568 0
DWIDTH 12 0
BBX 10 16 0 0
BITMAP
1FC0
3FC0
60C0
60C0
60C0
FCC0
FCC0
60C0
60C0
60C0
60C0
60C0
60C0
60C0
60C0
60C0
ENDCHAR
STARTCHAR uparrtipright.uni21B1
ENCODING 8625
SWIDTH 713 0
DWIDTH 12 0
BBX 11 16 1 0
BITMAP
0600
0300
0380
01C0
7FE0
FFE0
C1C0
C380
C300
C600
C000
C000
C000
C000
C000
C000
ENDCHAR
STARTCHAR uparrtipleft.uni21B0
ENCODING 8624
SWIDTH 713 0
DWIDTH 12 0
BBX 11 16 0 0
BITMAP
0C00
1800
3800
7000
FFC0
FFE0
7060
3860
1860
0C60
0060
0060
0060
0060
0060
0060
ENDCHAR
STARTCHAR xsuperior.uni02E3
ENCODING 739
SWIDTH 714 0
DWIDTH 12 0
BBX 9 9 1 7
BITMAP
E380
6300
3600
1C00
1C00
1C00
3600
6300
E380
ENDCHAR
STARTCHAR sigma.uni03C3
ENCODING 963
SWIDTH 714 0
DWIDTH 12 0
BBX 10 11 1 0
BITMAP
3FC0
7FC0
6300
C180
C180
C180
C180
C180
6300
7F00
3E00
ENDCHAR
STARTCHAR theta.uni03B8
ENCODING 952
SWIDTH 713 0
DWIDTH 12 0
BBX 10 15 1 0
BITMAP
1E00
7F80
6180
E1C0
C0C0
C0C0
FFC0
FFC0
C0C0
C0C0
C0C0
E1C0
6180
7F80
1E00
ENDCHAR
STARTCHAR eqminus.uni23BB
ENCODING 9147
SWIDTH 713 0
DWIDTH 12 0
BBX 8 2 2 10
BITMAP
FF00
FF00
ENDCHAR
STARTCHAR block.uni2588
ENCODING 9608
SWIDTH 713 0
DWIDTH 12 0
BBX 12 21 0 -4
BITMAP
FFF0
FFF0
FFF0
FFF0
FFF0
FFF0
FFF0
FFF0
FFF0
FFF0
FFF0
FFF0
FFF0
FFF0
FFF0
FFF0
FFF0
FFF0
FFF0
FFF0
FFF0
ENDCHAR
STARTCHAR hyphensoft.uni00AD
ENCODING 173
SWIDTH 713 0
DWIDTH 12 0
BBX 5 2 3 5
BITMAP
F800
F800
ENDCHAR
STARTCHAR boldparleft.uni27EA
ENCODING 10218
SWIDTH 713 0
DWIDTH 12 0
BBX 6 19 3 -3
BITMAP
1C00
3800
3800
7800
7800
7000
F000
F000
F000
F000
F000
F000
F000
7000
7800
7800
3800
3800
1C00
ENDCHAR
STARTCHAR boldparright.uni27EB
ENCODING 10219
SWIDTH 713 0
DWIDTH 12 0
BBX 6 19 3 -3
BITMAP
E000
7000
7000
7800
7800
3800
3C00
3C00
3C00
3C00
3C00
3C00
3C00
3800
7800
7800
7000
7000
E000
ENDCHAR
STARTCHAR 00FB.uni00FB
ENCODING 251
SWIDTH 568 0
DWIDTH 12 0
BBX 9 17 1 0
BITMAP
1C00
3E00
3600
6300
0000
0000
C180
C180
C180
C180
C180
C180
C180
C180
E380
7F80
3980
ENDCHAR
STARTCHAR 00FC.uni00FC
ENCODING 252
SWIDTH 568 0
DWIDTH 12 0
BBX 9 16 1 0
BITMAP
6300
6300
0000
0000
0000
C180
C180
C180
C180
C180
C180
C180
C180
E380
7F80
3980
ENDCHAR
STARTCHAR 00FD.uni00FD
ENCODING 253
SWIDTH 568 0
DWIDTH 12 0
BBX 9 21 1 -4
BITMAP
0380
0700
0600
0C00
0000
0000
C180
6300
6300
6300
3600
3600
3E00
1C00
1C00
0C00
1C00
1800
1800
7000
7000
ENDCHAR
STARTCHAR 00FF.uni00FF
ENCODING 255
SWIDTH 568 0
DWIDTH 12 0
BBX 9 20 1 -4
BITMAP
6300
6300
0000
0000
0000
C180
6300
6300
6300
3600
3600
3E00
1C00
1C00
0C00
1C00
1800
1800
7000
7000
ENDCHAR
STARTCHAR triagleft.uni25C0
ENCODING 9664
SWIDTH 568 0
DWIDTH 12 0
BBX 11 12 0 1
BITMAP
0020
00E0
03E0
0FE0
3FE0
FFE0
FFE0
3FE0
0FE0
03E0
00E0
0020
ENDCHAR
STARTCHAR germandblS.uni1E9E
ENCODING 7838
SWIDTH 568 0
DWIDTH 12 0
BBX 9 16 1 0
BITMAP
3F80
7F00
6300
C600
C600
CC00
CC00
D800
DE00
C700
C380
C180
C180
D380
DF00
CE00
ENDCHAR
STARTCHAR Gamma.uni0393
ENCODING 915
SWIDTH 568 0
DWIDTH 12 0
BBX 10 15 1 0
BITMAP
FFC0
FFC0
C000
C000
C000
C000
C000
C000
C000
C000
C000
C000
C000
C000
C000
ENDCHAR
ENDFONT
